<svg xmlns="http://www.w3.org/2000/svg" xmlns:xlink="http://www.w3.org/1999/xlink" width="575.758" height="351.417" viewBox="0 0 575.758 351.417">
  <defs>
    <clipPath id="clip-path">
      <rect id="Rectangle_2" data-name="Rectangle 2" width="575.758" height="351.417"/>
    </clipPath>
  </defs>
  <g id="Logo_Cauchm4r_Black" transform="translate(-955 -107)">
    <g id="Group_4" data-name="Group 4" transform="translate(955 107)">
      <g id="Group_3" data-name="Group 3" clip-path="url(#clip-path)">
        <path id="Path_2" data-name="Path 2" d="M385.27,140.557c-26.949,0-53.128,7.546-76.887,20.264a42.312,42.312,0,1,1,.849-74.184c24.471,13.827,52.488,20.112,80.6,20.112h20.967a123.484,123.484,0,1,0-.04,33.808Z"/>
        <path id="Path_3" data-name="Path 3" d="M19.3,334.262v-4.888a8.712,8.712,0,0,1,8.712-8.712H55.781V312.52H16.293A16.294,16.294,0,0,0,0,328.814v6.309a16.294,16.294,0,0,0,16.293,16.294H55.781v-8.443H28.009a8.712,8.712,0,0,1-8.712-8.712"/>
        <path id="Path_4" data-name="Path 4" d="M241.821,334.262v-4.888a8.712,8.712,0,0,1,8.712-8.712H278.3V312.52H238.817a16.294,16.294,0,0,0-16.293,16.294v6.309a16.294,16.294,0,0,0,16.293,16.294H278.3v-8.443H250.533a8.712,8.712,0,0,1-8.712-8.712"/>
        <path id="Path_5" data-name="Path 5" d="M193.571,351.417a15.245,15.245,0,0,0,15.245-15.245V312.521H189.357V334.7a8.345,8.345,0,0,1-8.345,8.345H166.9V312.521H147.445v38.9Z"/>
        <path id="Path_6" data-name="Path 6" d="M87.61,312.52a15.244,15.244,0,0,0-15.245,15.245v23.652H91.824v-11.5h22.453v11.5h19.459v-38.9Zm4.214,17.79v-1.078a8.345,8.345,0,0,1,8.344-8.345h14.109v9.423Z"/>
        <path id="Path_7" data-name="Path 7" d="M335.747,312.521V326.24H314.142V312.521H294.589v38.9h19.553V337.7h21.605v13.719H355.3v-38.9Z"/>
        <path id="Path_8" data-name="Path 8" d="M371.4,351.417v-38.9h17.187l11.9,19.448H404.4l12.684-19.448h17.187v38.9H416.856V334.833l-11.609,16.584h-4.372L389.04,334.758v16.659Z"/>
        <path id="Path_9" data-name="Path 9" d="M494.5,337.547V312.521H480.779L450.325,338.15v7.538h33.017v5.729H494.5v-5.729h5.428v-8.141Zm-11.307,0H468.266l14.925-12.815Z"/>
        <path id="Path_10" data-name="Path 10" d="M575.758,351.417l-9.2-12.073a11.87,11.87,0,0,0,8.426-11.332V324.43a11.909,11.909,0,0,0-11.909-11.909H516.584v38.9h16.622V339.922h12.976l9.374,11.495Zm-42.364-30.755h17.212a4.95,4.95,0,0,1,4.95,4.95v1.407a4.95,4.95,0,0,1-4.95,4.95H533.394Z"/>
      </g>
    </g>
  </g>
</svg>
