<?xml version="1.0" encoding="utf-8"?>
<!-- Generator: Adobe Illustrator 27.9.0, SVG Export Plug-In . SVG Version: 6.00 Build 0)  -->
<svg version="1.1" id="Calque_1" xmlns="http://www.w3.org/2000/svg" xmlns:xlink="http://www.w3.org/1999/xlink" x="0px" y="0px"
	 viewBox="0 0 596.3 125" style="enable-background:new 0 0 596.3 125;" xml:space="preserve">
<style type="text/css">
	.st0{clip-path:url(#SVGID_00000152228155495193423600000001807843634771734682_);}
	.st1{clip-path:url(#Path_2_00000052788977013610966880000011298226005618866328_);}
	.st2{clip-path:url(#Path_3_00000181060383312354127830000012114006955643957654_);}
	.st3{clip-path:url(#Path_4_00000165221050349436975340000014795498323516561570_);}
	.st4{clip-path:url(#Path_5_00000175302649998798110060000014774394803731432891_);}
	.st5{clip-path:url(#Path_6_00000013898365968036625600000017178625813336730042_);}
	.st6{clip-path:url(#Path_7_00000003814123493634433410000004783918119147756183_);}
	.st7{clip-path:url(#Path_8_00000154408954770269973090000018258730271543180181_);}
	.st8{clip-path:url(#Path_9_00000080170427072080471120000016743326498217527450_);}
</style>
<g>
	<defs>
		<rect id="SVGID_1_" x="1.1" y="1.1" width="595.3" height="123.6"/>
	</defs>
	<clipPath id="SVGID_00000077304715483323817580000017715624107116595135_">
		<use xlink:href="#SVGID_1_"  style="overflow:visible;"/>
	</clipPath>
	<g style="clip-path:url(#SVGID_00000077304715483323817580000017715624107116595135_);">
		<defs>
			<path id="Path_2" d="M111.3,71.4c-13.5,0-26.6,3.8-38.5,10.1c-10.3,5.5-23.1,1.6-28.7-8.7s-1.6-23.1,8.7-28.7
				c6.4-3.4,14.1-3.3,20.4,0.2c12.2,6.9,26.3,10.1,40.3,10.1h10.5C119.5,20.7,88.3-3,54.5,1.7S-3,37.5,1.6,71.3
				c4.6,33.8,35.8,57.5,69.6,52.8c27.4-3.8,49-25.3,52.8-52.7H111.3z"/>
		</defs>
		<defs>
			<path id="Path_3" d="M181,64v-3.6c0-3.6,2.9-6.5,6.5-6.5c0,0,0,0,0,0h20.7v-6.1h-29.5c-6.7,0-12.2,5.4-12.2,12.2v4.7
				c0,6.7,5.4,12.2,12.2,12.2h29.5v-6.3h-20.7C183.9,70.5,181,67.6,181,64L181,64"/>
		</defs>
		<defs>
			<path id="Path_4" d="M347.1,64v-3.6c0-3.6,2.9-6.5,6.5-6.5l0,0h20.7v-6.1h-29.5c-6.7,0-12.2,5.4-12.2,12.2v4.7
				c0,6.7,5.4,12.2,12.2,12.2h29.5v-6.3h-20.7C350,70.5,347.1,67.6,347.1,64L347.1,64"/>
		</defs>
		<defs>
			<path id="Path_5" d="M311.1,76.8c6.3,0,11.4-5.1,11.4-11.4V47.8h-14.5v16.6c0,3.4-2.8,6.2-6.2,6.2l0,0h-10.5V47.8h-14.5v29
				L311.1,76.8z"/>
		</defs>
		<defs>
			<path id="Path_6" d="M232,47.8c-6.3,0-11.4,5.1-11.4,11.4c0,0,0,0,0,0v17.7h14.5v-8.6h16.8v8.6h14.5v-29L232,47.8z M235.1,61
				v-0.8c0-3.4,2.8-6.2,6.2-6.2h10.5v7H235.1z"/>
		</defs>
		<defs>
			<path id="Path_7" d="M417.2,47.8V58h-16.1V47.8h-14.6v29h14.6V66.5h16.1v10.2h14.6v-29L417.2,47.8z"/>
		</defs>
		<defs>
			<path id="Path_8" d="M443.8,76.8v-29h12.8l8.9,14.5h2.9l9.5-14.5h12.8v29h-13V64.4l-8.7,12.4h-3.3L457,64.3v12.4H443.8z"/>
		</defs>
		<defs>
			<path id="Path_9" d="M535.7,66.4V47.8h-10.2l-22.7,19.1v5.6h24.6v4.3h8.3v-4.3h4.1v-6.1H535.7z M527.2,66.4h-11.1l11.1-9.6
				L527.2,66.4z"/>
		</defs>
		<defs>
			<path id="Path_10" d="M596.3,76.8l-6.9-9c3.7-1.1,6.3-4.6,6.3-8.5v-2.7c0-4.9-4-8.9-8.9-8.9h-34.7v29h12.4v-8.6h9.7l7,8.6H596.3z
				 M564.7,53.8h12.8c2,0,3.7,1.7,3.7,3.7v0v1.1c0,2-1.7,3.7-3.7,3.7l0,0h-12.8V53.8z"/>
		</defs>
		<use xlink:href="#Path_2"  style="overflow:visible;fill:#FFFFFF;"/>
		<use xlink:href="#Path_3"  style="overflow:visible;fill:#FFFFFF;"/>
		<use xlink:href="#Path_4"  style="overflow:visible;fill:#FFFFFF;"/>
		<use xlink:href="#Path_5"  style="overflow:visible;fill:#FFFFFF;"/>
		<use xlink:href="#Path_6"  style="overflow:visible;fill:#FFFFFF;"/>
		<use xlink:href="#Path_7"  style="overflow:visible;fill:#FFFFFF;"/>
		<use xlink:href="#Path_8"  style="overflow:visible;fill:#FFFFFF;"/>
		<use xlink:href="#Path_9"  style="overflow:visible;fill:#FFFFFF;"/>
		<use xlink:href="#Path_10"  style="overflow:visible;fill:#FFFFFF;"/>
		<clipPath id="Path_2_00000042712676671714409360000015379160489977566634_">
			<use xlink:href="#Path_2"  style="overflow:visible;"/>
		</clipPath>
		
			<clipPath id="Path_3_00000011745538152355484010000018398445554455392160_" style="clip-path:url(#Path_2_00000042712676671714409360000015379160489977566634_);">
			<use xlink:href="#Path_3"  style="overflow:visible;"/>
		</clipPath>
		
			<clipPath id="Path_4_00000171691822932260880180000014828419893139995544_" style="clip-path:url(#Path_3_00000011745538152355484010000018398445554455392160_);">
			<use xlink:href="#Path_4"  style="overflow:visible;"/>
		</clipPath>
		
			<clipPath id="Path_5_00000052794629249544493720000012656291590535252880_" style="clip-path:url(#Path_4_00000171691822932260880180000014828419893139995544_);">
			<use xlink:href="#Path_5"  style="overflow:visible;"/>
		</clipPath>
		
			<clipPath id="Path_6_00000121974669794337679660000010489936811577901196_" style="clip-path:url(#Path_5_00000052794629249544493720000012656291590535252880_);">
			<use xlink:href="#Path_6"  style="overflow:visible;"/>
		</clipPath>
		
			<clipPath id="Path_7_00000007409286378871414550000001646560159662395276_" style="clip-path:url(#Path_6_00000121974669794337679660000010489936811577901196_);">
			<use xlink:href="#Path_7"  style="overflow:visible;"/>
		</clipPath>
		
			<clipPath id="Path_8_00000105415771598232611420000005526477585411353223_" style="clip-path:url(#Path_7_00000007409286378871414550000001646560159662395276_);">
			<use xlink:href="#Path_8"  style="overflow:visible;"/>
		</clipPath>
		
			<clipPath id="Path_9_00000109744992219281007860000009417019461146016907_" style="clip-path:url(#Path_8_00000105415771598232611420000005526477585411353223_);">
			<use xlink:href="#Path_9"  style="overflow:visible;"/>
		</clipPath>
		
			<clipPath id="Path_10_00000052808916282849992120000013373836273267459775_" style="clip-path:url(#Path_9_00000109744992219281007860000009417019461146016907_);">
			<use xlink:href="#Path_10"  style="overflow:visible;"/>
		</clipPath>
	</g>
</g>
</svg>
